# xmcd CD database file
#
# Track frame offsets:
#	150
#	10784
#	23261
#	35821
#	48312
#	59201
#	74545
#	84818
#	95409
#	106505
#	117903
#	126914
#	134829
#	145115
#	155188
#	166392
#
# Disc length: 2354 seconds
#
# Revision: 0
# Processed by: cddbd v1.5.2PL0 Copyright (c) Steve Scherf et al.
# Submitted via: CDex 1.70beta2
#
DISCID=db093010
DTITLE=Chet Atkins - Pickin On Country CD 1
DYEAR=2008
DGENRE=Country
TTITLE0=Arkansas Traveler
TTITLE1=Londonderry Aire
TTITLE2=Ochi Chornya (Dark Eyes)
TTITLE3=La Golondrina
TTITLE4=Blues In The Night
TTITLE5=Tenderly
TTITLE6=Little Rock Getaway
TTITLE7=Tip-Toe Through The Tulips
TTITLE8=Minuet, Prelude
TTITLE9=Intermezzo
TTITLE10=Schon Rosmarin
TTITLE11=Minute Waltz
TTITLE12=Mr Sandman
TTITLE13=Corrine, Corrina
TTITLE14=Frankie And Johnny
TTITLE15=Country Gentleman
EXTD=YEAR: 2008
EXTT0=
EXTT1=
EXTT2=
EXTT3=
EXTT4=
EXTT5=
EXTT6=
EXTT7=
EXTT8=
EXTT9=
EXTT10=
EXTT11=
EXTT12=
EXTT13=
EXTT14=
EXTT15=
PLAYORDER=
